<svg xmlns="http://www.w3.org/2000/svg" width="212.158" height="23.949" viewBox="0 0 212.158 23.949" fill="#FFFFFF">
  <path d="M 72.569 0.206 L 80.749 0.206 C 87.511 0.206 92.982 5.471 92.982 12.026 C 92.982 18.581 87.511 23.845 80.749 23.845 L 72.569 23.845 L 72.569 0.206 Z M 80.749 18.994 C 84.801 18.994 87.537 15.82 87.537 12.026 C 87.537 8.232 84.801 5.058 80.749 5.058 L 77.937 5.058 L 77.937 18.968 L 80.749 18.968 L 80.749 18.994 Z M 143.873 14.271 L 143.873 0.206 L 149.163 0.206 L 149.163 14.349 C 149.163 17.136 150.97 18.839 153.602 18.839 C 156.234 18.839 158.041 17.136 158.041 14.349 L 158.041 0.206 L 163.357 0.206 L 163.357 14.271 C 163.357 20.078 159.28 23.871 153.628 23.871 C 147.925 23.897 143.873 20.078 143.873 14.271 Z M 45.472 14.271 L 45.472 0.206 L 50.762 0.206 L 50.762 14.349 C 50.762 17.136 52.568 18.839 55.201 18.839 C 57.833 18.839 59.64 17.136 59.64 14.349 L 59.64 0.206 L 64.93 0.206 L 64.93 14.271 C 64.93 20.078 60.852 23.871 55.201 23.871 C 49.523 23.897 45.472 20.078 45.472 14.271 Z M 196.803 0.206 L 212.158 0.206 L 212.158 5.11 L 202.119 5.11 L 202.119 9.497 L 210.377 9.497 L 210.377 14.555 L 202.119 14.555 L 202.119 18.942 L 212.158 18.942 L 212.158 23.845 L 196.803 23.845 L 196.803 0.206 Z M 101.421 0.232 L 94.969 0.232 L 104.44 13.471 L 104.44 23.845 L 109.731 23.845 L 109.731 12.155 L 101.421 0.232 Z M 171.28 23.871 L 171.28 0.232 L 182.506 0.232 C 184.467 0.232 186.119 0.877 187.254 2.09 C 188.261 3.148 188.803 4.594 188.803 6.142 C 188.803 9.007 187.59 10.813 185.783 11.742 C 187.667 12.49 189.241 14.607 189.241 17.574 C 189.241 20.465 187.59 23.871 182.919 23.871 L 171.28 23.871 Z M 176.235 19.2 L 181.396 19.2 C 182.738 19.2 183.873 18.22 183.873 16.723 C 183.873 15.226 182.686 14.194 181.396 14.194 L 176.235 14.194 L 176.235 19.2 Z M 176.235 9.574 L 181.19 9.574 C 182.351 9.574 183.435 8.594 183.435 7.226 C 183.435 5.884 182.299 4.903 181.19 4.903 L 176.235 4.903 L 176.235 9.574 Z M 28.258 5.265 L 22.245 5.265 L 22.245 0.206 L 39.691 0.206 L 39.691 5.265 L 33.6 5.265 L 33.6 23.845 L 28.284 23.845 L 28.284 5.265 L 28.258 5.265 Z M 125.498 5.265 L 114.531 5.265 L 118.066 0.206 L 136.905 0.206 L 136.905 5.265 L 130.815 5.265 L 130.815 23.845 L 125.498 23.845 L 125.498 5.265 Z M 16 12.774 C 15.174 11.768 14.039 10.994 12.645 10.426 L 9.703 9.239 C 9.213 9.032 8.749 8.826 8.336 8.671 C 7.923 8.49 7.561 8.31 7.252 8.129 C 6.942 7.948 6.71 7.716 6.555 7.51 C 6.4 7.278 6.323 7.019 6.323 6.684 C 6.323 6.065 6.555 5.6 7.045 5.265 C 7.536 4.929 8.232 4.748 9.084 4.748 C 9.961 4.748 10.787 4.903 11.536 5.213 C 12.361 5.574 13.239 6.194 13.832 6.658 L 13.936 6.71 L 16.542 2.968 C 16.542 2.968 15.097 1.6 13.058 0.774 C 11.742 0.258 10.4 0 9.058 0 C 7.845 0 6.736 0.181 5.729 0.542 C 4.748 0.877 3.871 1.394 3.123 2.013 C 2.392 2.619 1.802 3.376 1.394 4.232 C 0.981 5.084 0.774 5.987 0.774 6.942 C 0.774 7.794 0.903 8.568 1.161 9.239 C 1.419 9.91 1.781 10.529 2.219 11.02 C 2.658 11.536 3.174 11.974 3.716 12.361 C 4.258 12.749 4.852 13.058 5.445 13.291 L 8.439 14.555 L 9.781 15.123 C 10.168 15.303 10.529 15.484 10.813 15.665 C 11.097 15.845 11.303 16.078 11.432 16.31 C 11.561 16.542 11.639 16.826 11.639 17.162 C 11.639 17.807 11.407 18.297 10.89 18.658 C 10.4 19.045 9.6 19.226 8.568 19.226 C 7.639 19.226 6.658 18.994 5.703 18.581 C 4.774 18.168 3.742 17.497 2.89 16.774 L 2.787 16.671 L 0 20.697 L 0.077 20.774 C 1.213 21.807 2.529 22.607 3.948 23.123 C 5.445 23.665 6.968 23.949 8.465 23.949 C 9.832 23.949 11.071 23.742 12.155 23.355 C 13.239 22.968 14.168 22.426 14.916 21.781 C 15.665 21.136 16.232 20.362 16.645 19.484 C 17.032 18.607 17.239 17.678 17.239 16.723 C 17.239 15.123 16.826 13.781 16 12.774 Z" fill="#FFFFFF" fill-rule="nonzero"></path>
</svg>